<svg width="21" height="22" viewBox="0 0 21 22" fill="none" xmlns="http://www.w3.org/2000/svg">
<path d="M20.4238 20.5375L20.4259 20.5396C20.4502 20.5636 20.4693 20.5924 20.482 20.6241C20.4948 20.6558 20.5008 20.6898 20.4999 20.7239C20.499 20.7581 20.491 20.7917 20.4766 20.8227C20.4621 20.8536 20.4415 20.8813 20.4159 20.9039L20.4037 20.9147L20.3923 20.9262C20.3691 20.9496 20.3415 20.9681 20.3111 20.9808C20.2807 20.9935 20.2481 21 20.2152 21C20.1823 21 20.1497 20.9935 20.1193 20.9808C20.0889 20.9681 20.0613 20.9496 20.0381 20.9262L20.0366 20.9247L15.3113 16.1992V15.812H15.6985L20.4238 20.5375ZM15.4718 14.9886L15.0203 15.521L14.4879 15.9726C12.8159 17.3907 10.6602 18.1074 8.4719 17.9727C6.2836 17.8379 4.23215 16.8622 2.7467 15.2495C1.26124 13.6369 0.456845 11.5123 0.501787 9.32024C0.546728 7.12813 1.43752 5.03831 2.98783 3.48793C4.53813 1.93756 6.62784 1.04673 8.81983 1.00179C11.0118 0.956844 13.1363 1.76127 14.7488 3.24679C16.3614 4.73232 17.3371 6.78387 17.4718 8.97229C17.6066 11.1607 16.8899 13.3165 15.4718 14.9886ZM4.561 16.121C5.87576 16.9996 7.42151 17.4685 9.00276 17.4685C10.0527 17.4685 11.0923 17.2617 12.0623 16.8599C13.0323 16.4581 13.9137 15.8692 14.6561 15.1267C15.3984 14.3843 15.9874 13.5029 16.3891 12.5329C16.7909 11.5628 16.9977 10.5232 16.9977 9.4732C16.9977 7.89188 16.5288 6.34608 15.6503 5.03126C14.7718 3.71644 13.5232 2.69166 12.0623 2.08651C10.6014 1.48136 8.99389 1.32303 7.44302 1.63153C5.89215 1.94003 4.46758 2.70151 3.34947 3.81968C2.23136 4.93784 1.46992 6.36247 1.16143 7.9134C0.852949 9.46433 1.01127 11.0719 1.61639 12.5329C2.22151 13.9938 3.24623 15.2425 4.561 16.121Z" fill="#6C63FF"/>
<path d="M20.4238 20.5375L20.4259 20.5396C20.4502 20.5636 20.4693 20.5924 20.482 20.6241C20.4948 20.6558 20.5008 20.6898 20.4999 20.7239C20.499 20.7581 20.491 20.7917 20.4766 20.8227C20.4621 20.8536 20.4415 20.8813 20.4159 20.9039L20.4037 20.9147L20.3923 20.9262C20.3691 20.9496 20.3415 20.9681 20.3111 20.9808C20.2807 20.9935 20.2481 21 20.2152 21C20.1823 21 20.1497 20.9935 20.1193 20.9808C20.0889 20.9681 20.0613 20.9496 20.0381 20.9262L20.0366 20.9247L15.3113 16.1992V15.812H15.6985L20.4238 20.5375ZM15.4718 14.9886L15.0203 15.521L14.4879 15.9726C12.8159 17.3907 10.6602 18.1074 8.4719 17.9727C6.2836 17.8379 4.23215 16.8622 2.7467 15.2495C1.26124 13.6369 0.456845 11.5123 0.501787 9.32024C0.546728 7.12813 1.43752 5.03831 2.98783 3.48793C4.53813 1.93756 6.62784 1.04673 8.81983 1.00179C11.0118 0.956844 13.1363 1.76127 14.7488 3.24679C16.3614 4.73232 17.3371 6.78387 17.4718 8.97229C17.6066 11.1607 16.8899 13.3165 15.4718 14.9886ZM4.561 16.121C5.87576 16.9996 7.42151 17.4685 9.00276 17.4685C10.0527 17.4685 11.0923 17.2617 12.0623 16.8599C13.0323 16.4581 13.9137 15.8692 14.6561 15.1267C15.3984 14.3843 15.9874 13.5029 16.3891 12.5329C16.7909 11.5628 16.9977 10.5232 16.9977 9.4732C16.9977 7.89188 16.5288 6.34608 15.6503 5.03126C14.7718 3.71644 13.5232 2.69166 12.0623 2.08651C10.6014 1.48136 8.99389 1.32303 7.44302 1.63153C5.89215 1.94003 4.46758 2.70151 3.34947 3.81968C2.23136 4.93784 1.46992 6.36247 1.16143 7.9134C0.852949 9.46433 1.01127 11.0719 1.61639 12.5329C2.22151 13.9938 3.24623 15.2425 4.561 16.121Z" stroke="black"/>
<path d="M20.4238 20.5375L20.4259 20.5396C20.4502 20.5636 20.4693 20.5924 20.482 20.6241C20.4948 20.6558 20.5008 20.6898 20.4999 20.7239C20.499 20.7581 20.491 20.7917 20.4766 20.8227C20.4621 20.8536 20.4415 20.8813 20.4159 20.9039L20.4037 20.9147L20.3923 20.9262C20.3691 20.9496 20.3415 20.9681 20.3111 20.9808C20.2807 20.9935 20.2481 21 20.2152 21C20.1823 21 20.1497 20.9935 20.1193 20.9808C20.0889 20.9681 20.0613 20.9496 20.0381 20.9262L20.0366 20.9247L15.3113 16.1992V15.812H15.6985L20.4238 20.5375ZM15.4718 14.9886L15.0203 15.521L14.4879 15.9726C12.8159 17.3907 10.6602 18.1074 8.4719 17.9727C6.2836 17.8379 4.23215 16.8622 2.7467 15.2495C1.26124 13.6369 0.456845 11.5123 0.501787 9.32024C0.546728 7.12813 1.43752 5.03831 2.98783 3.48793C4.53813 1.93756 6.62784 1.04673 8.81983 1.00179C11.0118 0.956844 13.1363 1.76127 14.7488 3.24679C16.3614 4.73232 17.3371 6.78387 17.4718 8.97229C17.6066 11.1607 16.8899 13.3165 15.4718 14.9886ZM4.561 16.121C5.87576 16.9996 7.42151 17.4685 9.00276 17.4685C10.0527 17.4685 11.0923 17.2617 12.0623 16.8599C13.0323 16.4581 13.9137 15.8692 14.6561 15.1267C15.3984 14.3843 15.9874 13.5029 16.3891 12.5329C16.7909 11.5628 16.9977 10.5232 16.9977 9.4732C16.9977 7.89188 16.5288 6.34608 15.6503 5.03126C14.7718 3.71644 13.5232 2.69166 12.0623 2.08651C10.6014 1.48136 8.99389 1.32303 7.44302 1.63153C5.89215 1.94003 4.46758 2.70151 3.34947 3.81968C2.23136 4.93784 1.46992 6.36247 1.16143 7.9134C0.852949 9.46433 1.01127 11.0719 1.61639 12.5329C2.22151 13.9938 3.24623 15.2425 4.561 16.121Z" stroke="black" stroke-opacity="0.2"/>
</svg>
